<svg xmlns="http://www.w3.org/2000/svg" version="1.1" xmlns:xlink="http://www.w3.org/1999/xlink" width="1000" height="1000"><style>
    #light-icon {
      display: inline;
    }
    #dark-icon {
      display: none;
    }

    @media (prefers-color-scheme: dark) {
      #light-icon {
        display: none;
      }
      #dark-icon {
        display: inline;
      }
    }
  </style><g id="light-icon"><svg xmlns="http://www.w3.org/2000/svg" version="1.1" xmlns:xlink="http://www.w3.org/1999/xlink" width="1000" height="1000"><g><g transform="matrix(31.25,0,0,31.25,0,0)"><svg xmlns="http://www.w3.org/2000/svg" version="1.1" xmlns:xlink="http://www.w3.org/1999/xlink" width="32" height="32"><svg width="32" height="32" viewBox="0 0 32 32" fill="none" xmlns="http://www.w3.org/2000/svg">
<path d="M27.1916 14.3505V6.98413L15.9979 2L4.80469 6.98357V14.3505C4.80469 21.5558 7.69229 24.0934 15.9979 30C24.304 24.0934 27.1916 21.5563 27.1916 14.3505Z" fill="white"></path>
<path d="M15.7002 8.56318C16.9964 8.5822 17.795 9.06954 18.4678 9.40596C18.6614 9.50249 18.8155 9.5082 18.9102 9.44795C19.0026 9.38878 19.0974 9.22792 19.0791 8.84541L19.0732 8.72236L19.1963 8.71455L19.5986 8.68818L19.6113 8.80732L20.0625 13.1237L20.0752 13.238L19.9619 13.2595L19.541 13.3386L19.5156 13.2194C19.3198 12.324 18.9617 11.312 18.3574 10.5192C17.7559 9.73009 16.9122 9.16068 15.7324 9.13349C14.8392 9.11523 14.1867 9.4064 13.7568 9.84736C13.3254 10.29 13.1084 10.8932 13.1084 11.5153C13.1084 12.3215 13.3697 12.8863 13.8516 13.3347C14.3406 13.7895 15.0642 14.131 16.0039 14.4694L16.0078 14.4714L17.249 14.9606C18.2353 15.321 19.0938 15.757 19.7061 16.3474C20.3225 16.9418 20.6865 17.6901 20.6865 18.6589C20.6865 19.8891 20.1229 20.8345 19.2764 21.4616C18.4329 22.0863 17.3113 22.3947 16.1855 22.3659C14.911 22.3468 14.0419 21.9197 13.3018 21.5212L13.2979 21.5192C13.1875 21.455 13.0761 21.3974 12.9717 21.362C12.8655 21.326 12.7802 21.3179 12.7168 21.3347C12.6613 21.3495 12.606 21.3882 12.5615 21.489C12.5146 21.5953 12.4828 21.7668 12.4873 22.0319L12.4893 22.1511L12.3691 22.1589L11.9316 22.1843L11.918 22.0681L11.3008 17.0554L11.4102 17.03L11.7305 16.9548L11.8496 16.9265L11.8799 17.0456C12.0507 17.7099 12.3252 18.8954 12.9746 19.9216C13.6201 20.9414 14.6305 21.7959 16.2832 21.8142C18.2074 21.8326 19.4564 20.5932 19.4746 19.1862C19.4837 18.3805 19.2234 17.8109 18.7529 17.3649C18.2759 16.9128 17.5758 16.5801 16.6934 16.2702H16.6914L15.3896 15.779C14.4629 15.4288 13.5725 15.0072 12.916 14.4089C12.2548 13.8061 11.8309 13.0239 11.8408 11.9665C11.8609 9.99949 13.5917 8.54367 15.7002 8.56318Z" fill="#756445"></path>
</svg></svg></g></g></svg></g><g id="dark-icon"><svg xmlns="http://www.w3.org/2000/svg" version="1.1" xmlns:xlink="http://www.w3.org/1999/xlink" width="1000" height="1000"><g><g transform="matrix(31.25,0,0,31.25,0,0)"><svg xmlns="http://www.w3.org/2000/svg" version="1.1" xmlns:xlink="http://www.w3.org/1999/xlink" width="32" height="32"><svg width="32" height="32" viewBox="0 0 32 32" fill="none" xmlns="http://www.w3.org/2000/svg">
<path d="M27.1916 14.3505V6.98413L15.9979 2L4.80469 6.98357V14.3505C4.80469 21.5558 7.69229 24.0934 15.9979 30C24.304 24.0934 27.1916 21.5563 27.1916 14.3505Z" fill="#756445"></path>
<path d="M17.2049 15.0777L15.961 14.5874C14.0763 13.9087 12.9828 13.1925 12.9828 11.5153C12.9828 10.2144 13.8874 8.97044 15.7345 9.00846C18.1849 9.06492 19.2405 11.3834 19.6363 13.1931L19.9376 13.1366L19.4859 8.82061L19.203 8.83906C19.241 9.6307 18.8262 9.72463 18.4114 9.51777C17.7327 9.17841 16.96 8.70712 15.6971 8.68867C13.643 8.66966 11.9843 10.0836 11.9653 11.9682C11.9463 14.0038 13.5866 14.9648 15.4332 15.6625L16.7341 16.1528C18.5058 16.7751 19.6178 17.5103 19.5988 19.1875C19.5798 20.6768 18.2604 21.9582 16.2813 21.9392C12.8698 21.9018 12.0972 18.3958 11.7578 17.0764L11.4375 17.1519L12.0407 22.0527L12.3611 22.0337C12.3426 20.9407 12.9079 21.1481 13.3601 21.4115C14.0953 21.8073 14.9429 22.2221 16.1874 22.2406C18.3929 22.297 20.5604 21.0341 20.5604 18.6592C20.5604 16.7935 19.1656 15.7945 17.2054 15.0783L17.2049 15.0777Z" fill="white"></path>
</svg></svg></g></g></svg></g></svg>