<svg xmlns="http://www.w3.org/2000/svg" version="1.1" xmlns:xlink="http://www.w3.org/1999/xlink" width="1000" height="1000"><style>
    #light-icon {
      display: inline;
    }
    #dark-icon {
      display: none;
    }

    @media (prefers-color-scheme: dark) {
      #light-icon {
        display: none;
      }
      #dark-icon {
        display: inline;
      }
    }
  </style><g id="light-icon"><svg xmlns="http://www.w3.org/2000/svg" version="1.1" xmlns:xlink="http://www.w3.org/1999/xlink" width="1000" height="1000"><g clip-path="url(#SvgjsClipPath1017)"><rect width="1000" height="1000" fill="#f4f2ea"></rect><g transform="matrix(0.875,0,0,0.875,150,232.78812500000004)"><svg xmlns="http://www.w3.org/2000/svg" version="1.1" xmlns:xlink="http://www.w3.org/1999/xlink" width="800" height="610.77"><svg id="Layer_2" data-name="Layer 2" xmlns="http://www.w3.org/2000/svg" viewBox="0 0 800 610.77">
  <defs>
    <style>
      .cls-1 {
        fill: #756445;
      }
    </style>
  <clipPath id="SvgjsClipPath1017"><rect width="1000" height="1000" x="0" y="0" rx="350" ry="350"></rect></clipPath></defs>
  <g id="artwork">
    <g>
      <path class="cls-1" d="M421.59,326.04l-22.25-8.77c-33.71-12.14-53.27-24.95-53.27-54.95,0-23.27,16.18-45.52,49.22-44.84,43.83,1.01,62.71,42.48,69.79,74.85l5.39-1.01-8.08-77.2-5.06.33c.68,14.16-6.74,15.84-14.16,12.14-12.14-6.07-25.96-14.5-48.55-14.83-36.74-.34-66.41,24.95-66.75,58.66-.34,36.41,29,53.6,62.03,66.08l23.27,8.77c31.69,11.13,51.58,24.28,51.24,54.28-.34,26.64-23.94,49.56-59.34,49.22-61.02-.67-74.84-63.38-80.91-86.98l-5.73,1.35,10.79,87.66,5.73-.34c-.33-19.55,9.78-15.84,17.87-11.13,13.15,7.08,28.31,14.5,50.57,14.83,39.45,1.01,78.22-21.58,78.22-64.06,0-33.37-24.95-51.24-60.01-64.05Z"></path>
      <path class="cls-1" d="M794.44,384.89c-13.39,16.97-26.87,22.93-41.14,29.25-17.61,7.79-35.82,15.84-52.06,45.82-12.11,22.35-31.31,36.15-61.45,43.99.41-.36.81-.72,1.2-1.08.04-.04.1-.05.14-.09.08-.08.17-.18.25-.26,21.86-19.6,38.78-42.24,51.08-66.39.09-.12.19-.22.27-.35,9.7-16.97,20.46-25.5,35.36-37.3,3.23-2.56,6.69-5.32,10.32-8.29,1.78,1.18,3.9,1.87,6.31,1.95.16,0,.31,0,.46,0,5.71,0,12.28-3.25,17.67-8.76,9.8-10.03,9.56-20.4,5.19-25.79-1.87-2.3-4.87-3.57-8.45-3.58-.02,0-.03,0-.05,0-6.27,0-13.18,3.68-18.06,9.62-2.91,3.54-11.2,13.67-6.88,22.2-3.55,2.9-6.94,5.61-10.1,8.11-8.29,6.57-15.33,12.16-21.68,18.72,2.8-7.42,5.2-14.92,7.21-22.47.04-.11.09-.21.13-.33,7.68-27.41,19.89-45.73,30.2-61.76,9.26-14.4,18.01-27.99,22.39-45.76,6.32-25.63,3.91-38.45,1.35-52.04-1.46-7.75-2.96-15.77-2.94-26.79l.03-9.11-5.27,7.43c-17.26,24.3-27.62,53.04-29.16,80.91-.46,8.28-.29,15.01-.14,20.95.34,13.51.61,24.2-5.98,45.9-1.42,2.65-2.81,5.4-4.19,8.27-.01-.43,0-.86-.03-1.29,3.51-30.12,1.15-59.99-6.55-87.04-.42-13.84.71-24.2,2.77-32.6.11-.25.17-.52.2-.81,2.84-11.1,7.33-18.76,11.96-26.66,5.03-8.58,10.23-17.46,13.07-30.94,4.82-22.89,3.21-36,1.64-48.67-.81-6.58-1.64-13.37-1.6-21.59l.05-8.85-5.26,7.12c-23.72,32.06-42.03,63.94-25.73,129.31-.97,3.97-1.72,8.39-2.24,13.31-.98-4.29-1.97-8.74-2.98-13.29-3.79-17.05-8.09-36.36-13.98-55.23-.02-.05,0-.11-.02-.16-.05-.15-.11-.28-.17-.43-1.68-5.36-3.49-10.68-5.46-15.9-.02-.09,0-.19-.03-.28-7.66-22.52-7.13-38.65-6.24-65.36v-.35c2.13-.59,3.95-1.72,5.32-3.4,2.98-3.62,3.93-9.48,2.81-17.44-2.25-16.08-12.39-17.62-16.63-17.47-3,.07-5.71,1.48-7.64,3.96-3.23,4.16-4.08,10.93-2.33,18.58,2.05,8.96,5.15,15.11,12.67,16.05-.51,15.38-.9,27.73.44,40.02-9.18-16.78-20.89-30.97-36.26-39.77-3.15-2.94-8.08-9.9-13.78-17.96-10.58-14.97-23.73-33.59-36.27-42.05-11.36-7.67-28.08-13.43-44.25-19.02-11.7-4.04-22.76-7.85-31.35-12.18l-14.85-7.48,11.45,12.06c6.17,6.49,12.55,15.02,19.3,24.05,10.68,14.28,21.72,29.03,33.18,37.23,22.02,15.77,39.55,20.65,58.11,25.81,4.97,1.38,10.13,2.82,15.48,4.49,18.93,10.8,32.1,30.63,41.82,53.47-4.9-4.38-10.77-7.65-17.63-9.89.32-2.85-.23-5.82-1.63-8.58-2.29-4.54-6.63-8.05-12.22-9.88-11.06-3.63-19.82-1.77-23.41,5.01-1.34,2.52-1.44,5.55-.31,8.77,1.94,5.49,7.23,10.63,13.8,13.43,3.29,1.4,6.62,2.11,9.74,2.11,2.56,0,4.99-.48,7.11-1.44,2.1-.95,3.75-2.34,4.92-4,14.28,4.57,23.45,13.87,28.62,29.16,5.91,18.84,10.23,38.23,14.03,55.31.37,1.68.74,3.35,1.11,5.01-2.2-1.28-4.62-2.25-7.19-3.08-8.83-32.94-17.8-38.73-30.2-46.73-4.79-3.09-10.22-6.59-16.53-12.26l-5.91-5.31,1.12,7.87c7.11,49.8,28.84,55.95,44.71,60.44,7.82,2.21,13.67,3.92,16.48,9.95,1.48,6.38,2.97,12.37,4.5,17.72,6.19,21.57,8.89,45.01,7.82,68.91-4.49-9.91-11.45-18.17-16.48-24.14-.89-1.06-1.7-2.03-2.45-2.94,1.4-1.49,2.38-3.24,2.83-5.28,1.2-5.55-1.66-11.54-4.26-15.58-2.94-4.56-8.69-10.25-15.21-11.25-3.46-.53-6.7.37-9.37,2.59-5.74,4.78-5.4,13.77.87,22.91,4.06,5.93,10.09,10.63,16.22,10.63,1.38,0,2.75-.27,4.11-.79.86,1.06,1.79,2.18,2.85,3.43,7.56,8.96,18.46,21.9,19.5,37.28-4.73,39.75-19.99,79.88-47.19,114.2,30.05-56.86,18.77-84.25,3.25-121.82-3.9-9.45-7.94-19.22-11.69-30.37l-3.66-10.88-1.93,11.32c-1.5,8.82-3.07,16.29-4.45,22.88-5.96,28.48-8.69,41.48,10.52,78.27,12.98,24.88,6.21,54.08-18.08,78.2-10.64,9.53-22.5,18.31-35.59,26.17,12.29-12.12,18.17-23.83,23.22-39.26,6.59-.73,11.31-7.83,13.06-20.09,1.22-8.53-.28-16.68-3.91-21.27-1.92-2.42-4.39-3.84-7.13-4.09-3.44-.33-6.41.58-8.87,2.66-3.96,3.35-6.33,9.73-7.05,18.99-.43,5.54-1.45,19.29,8.07,23.01-7.61,22.86-16.96,36.48-49.48,57.52-.03.02-.04.04-.06.06-24.85,13.63-47.85,27.93-67.71,40.53-.03.02-.05.03-.07.04,0,0,0,0-.01,0-3.04,1.93-6.04,3.83-8.93,5.67-10.43,6.63-19.44,12.37-27.36,17.14-1.37.82-1.81,2.6-.98,3.97.54.9,1.5,1.4,2.48,1.4.51,0,1.03-.13,1.49-.42,7.69-4.63,16.4-10.16,26.38-16.51,14.3,8.78,26.25,11.55,36.76,11.55,8.98,0,16.92-1.98,24.41-3.85,9.29-2.32,17.32-4.32,25.96-2.35l9.57,2.18-6.86-7.02c-9.32-9.54-32.84-22.13-64.95-15.61,22.78-12.57,42.73-19.06,64.92-15.58,73.9,11.6,89.37,1.56,110.78-12.33,11.18-7.25,23.85-15.46,47.79-22.4l9.48-2.75-9.47-2.8c-61.11-18.06-88.69-5.18-126.86,12.66-14.62,6.83-31.18,14.57-51.75,21.29-4.74.47-9.43,1.39-14.13,2.63,12.63-7.4,25.88-14.8,39.58-21.83,14.66-7.52,27.94-16.13,39.94-25.59.01,0,.03,0,.04,0,.19,0,.38-.02.57-.06,17.79-3.58,32.37-8.83,44.31-16.11,45.24-4.82,120.79-25.45,124.56-109.07l.4-8.97-5.56,7.05Z"></path>
      <path class="cls-1" d="M307.07,588.27c-2.89-1.84-5.89-3.74-8.93-5.67,0,0,0,0,0,0-.03-.01-.05-.03-.08-.04-19.86-12.6-42.85-26.9-67.71-40.53-.02-.02-.03-.04-.06-.06-32.52-21.04-41.87-34.67-49.48-57.52,9.52-3.72,8.49-17.47,8.07-23.01-.71-9.25-3.08-15.64-7.05-18.99-2.46-2.08-5.42-2.98-8.86-2.66-2.75.25-5.22,1.67-7.14,4.09-3.62,4.59-5.12,12.74-3.9,21.27,1.74,12.26,6.46,19.36,13.05,20.09,5.05,15.43,10.93,27.14,23.22,39.26-13.09-7.85-24.94-16.63-35.59-26.17-24.29-24.13-31.06-53.33-18.08-78.2,19.2-36.79,16.48-49.79,10.51-78.27-1.38-6.59-2.94-14.06-4.45-22.88l-1.93-11.32-3.66,10.88c-3.75,11.15-7.79,20.92-11.69,30.37-15.52,37.56-26.8,64.96,3.25,121.82-27.19-34.31-42.46-74.45-47.19-114.2,1.04-15.38,11.94-28.32,19.51-37.28,1.05-1.25,1.99-2.37,2.85-3.43,1.37.52,2.74.79,4.11.79,6.12,0,12.16-4.71,16.22-10.63,6.26-9.13,6.6-18.12.86-22.91-2.66-2.22-5.9-3.12-9.37-2.59-6.52,1-12.27,6.68-15.21,11.25-2.61,4.04-5.47,10.03-4.26,15.58.44,2.03,1.42,3.78,2.83,5.28-.75.91-1.57,1.88-2.45,2.94-5.04,5.96-11.99,14.22-16.49,24.14-1.07-23.9,1.63-47.34,7.82-68.91,1.54-5.35,3.02-11.34,4.51-17.72,2.8-6.04,8.65-7.74,16.47-9.95,15.87-4.49,37.61-10.64,44.71-60.44l1.13-7.87-5.92,5.31c-6.31,5.66-11.74,9.16-16.53,12.26-12.4,8-21.37,13.79-30.21,46.73-2.56.83-4.99,1.8-7.19,3.08.37-1.65.74-3.32,1.12-5.01,3.8-17.08,8.11-36.47,14.03-55.31,5.17-15.3,14.33-24.6,28.61-29.16,1.18,1.66,2.83,3.05,4.92,4,2.13.96,4.54,1.44,7.11,1.44,3.12,0,6.45-.71,9.74-2.11,6.57-2.8,11.86-7.95,13.8-13.43,1.14-3.21,1.03-6.24-.3-8.77-3.59-6.78-12.35-8.64-23.42-5.01-5.59,1.83-9.93,5.34-12.21,9.88-1.4,2.76-1.95,5.73-1.63,8.58-6.86,2.23-12.73,5.51-17.63,9.89,9.72-22.84,22.88-42.67,41.82-53.47,5.36-1.67,10.51-3.11,15.48-4.49,18.57-5.16,36.1-10.04,58.12-25.81,11.45-8.2,22.5-22.96,33.17-37.23,6.76-9.03,13.14-17.56,19.3-24.05l11.46-12.06-14.85,7.48c-8.6,4.33-19.65,8.14-31.36,12.18-16.17,5.58-32.89,11.35-44.25,19.02-12.54,8.46-25.7,27.08-36.28,42.05-5.7,8.07-10.63,15.03-13.77,17.96-15.38,8.8-27.08,22.99-36.26,39.77,1.34-12.28.95-24.63.44-40.02,7.53-.94,10.62-7.1,12.67-16.05,1.75-7.65.9-14.43-2.33-18.58-1.93-2.48-4.64-3.89-7.64-3.96-4.24-.15-14.38,1.39-16.63,17.47-1.11,7.95-.17,13.82,2.81,17.44,1.38,1.68,3.2,2.81,5.32,3.4v.35c.89,26.71,1.43,42.83-6.23,65.36-.03.09-.02.18-.04.28-1.97,5.22-3.78,10.55-5.46,15.9-.05.15-.12.28-.17.43-.02.05,0,.11-.02.16-5.89,18.87-10.19,38.17-13.98,55.23-1.01,4.55-2,9-2.99,13.29-.52-4.92-1.27-9.34-2.23-13.31,16.29-65.37-2.01-97.25-25.73-129.31l-5.26-7.12.04,8.85c.05,8.22-.79,15.01-1.6,21.59-1.56,12.67-3.18,25.78,1.65,48.67,2.84,13.48,8.04,22.36,13.07,30.94,4.63,7.9,9.12,15.56,11.96,26.66.03.28.1.55.21.81,2.06,8.39,3.18,18.75,2.76,32.6-7.7,27.05-10.05,56.92-6.55,87.04-.02.42-.02.86-.03,1.29-1.37-2.87-2.76-5.62-4.18-8.27-6.59-21.7-6.32-32.38-5.98-45.9.16-5.94.33-12.67-.13-20.95-1.54-27.88-11.9-56.61-29.16-80.91l-5.27-7.43.03,9.11c.03,11.02-1.48,19.04-2.93,26.79-2.55,13.58-4.97,26.41,1.35,52.04,4.38,17.76,13.13,31.36,22.39,45.76,10.3,16.02,22.52,34.35,30.19,61.76.04.13.09.22.13.33,2.01,7.55,4.41,15.05,7.21,22.47-6.35-6.56-13.39-12.15-21.68-18.72-3.16-2.51-6.55-5.21-10.1-8.11,4.32-8.53-3.96-18.65-6.87-22.2-4.88-5.94-11.8-9.62-18.06-9.62-.02,0-.03,0-.05,0-3.58,0-6.58,1.28-8.46,3.58-4.37,5.39-4.62,15.76,5.19,25.79,5.39,5.52,11.96,8.76,17.67,8.76.16,0,.31,0,.46,0,2.42-.08,4.54-.77,6.31-1.95,3.63,2.97,7.1,5.73,10.32,8.29,14.9,11.8,25.66,20.33,35.37,37.3.07.13.18.24.27.35,12.3,24.15,29.21,46.79,51.08,66.39.09.08.17.17.26.26.04.04.09.05.14.09.4.36.8.72,1.2,1.08-30.14-7.84-49.34-21.64-61.44-43.99-16.24-29.98-34.45-38.03-52.06-45.82-14.27-6.31-27.76-12.28-41.14-29.25l-5.56-7.05.4,8.97c3.78,83.62,79.32,104.25,124.56,109.07,11.94,7.28,26.52,12.53,44.31,16.11.19.04.38.06.58.06.02,0,.03,0,.04,0,12,9.46,25.28,18.07,39.93,25.59,13.7,7.03,26.96,14.43,39.59,21.83-4.7-1.25-9.39-2.17-14.13-2.63-20.57-6.72-37.13-14.46-51.75-21.29-38.17-17.84-65.75-30.72-126.87-12.66l-9.47,2.8,9.48,2.75c23.94,6.94,36.61,15.16,47.78,22.4,21.41,13.89,36.89,23.92,110.78,12.33,22.2-3.47,42.14,3.01,64.92,15.58-32.11-6.52-55.63,6.07-64.95,15.61l-6.86,7.02,9.57-2.18c8.64-1.97,16.67.03,25.96,2.35,7.48,1.87,15.42,3.85,24.4,3.85,10.5,0,22.46-2.77,36.76-11.55,9.98,6.35,18.69,11.88,26.38,16.51.47.28.98.42,1.49.42.98,0,1.94-.5,2.48-1.4.82-1.37.38-3.15-.99-3.97-7.91-4.77-16.92-10.5-27.35-17.14Z"></path>
      <path class="cls-1" d="M600.22,313.04v-131.76l-200.22-89.15-200.21,89.14v131.77c0,128.88,51.65,174.27,200.21,279.92,148.57-105.65,200.22-151.03,200.22-279.92ZM400,582.46c-144.79-103.18-191.66-147.25-191.66-269.42v-126.21l191.66-85.33,191.66,85.33v126.21c0,122.16-46.87,166.24-191.66,269.42Z"></path>
    </g>
  </g>
</svg></svg></g></g></svg></g><g id="dark-icon"><svg xmlns="http://www.w3.org/2000/svg" version="1.1" xmlns:xlink="http://www.w3.org/1999/xlink" width="1000" height="1000"><g><g transform="matrix(1.25,0,0,1.25,0,118.26875000000001)"><svg xmlns="http://www.w3.org/2000/svg" version="1.1" xmlns:xlink="http://www.w3.org/1999/xlink" width="800" height="610.77"><svg id="Layer_2" data-name="Layer 2" xmlns="http://www.w3.org/2000/svg" viewBox="0 0 800 610.77">
  <defs>
    <style>
      .cls-1 {
        fill: #756445;
      }
    </style>
  </defs>
  <g id="artwork">
    <g>
      <path class="cls-1" d="M421.59,326.04l-22.25-8.77c-33.71-12.14-53.27-24.95-53.27-54.95,0-23.27,16.18-45.52,49.22-44.84,43.83,1.01,62.71,42.48,69.79,74.85l5.39-1.01-8.08-77.2-5.06.33c.68,14.16-6.74,15.84-14.16,12.14-12.14-6.07-25.96-14.5-48.55-14.83-36.74-.34-66.41,24.95-66.75,58.66-.34,36.41,29,53.6,62.03,66.08l23.27,8.77c31.69,11.13,51.58,24.28,51.24,54.28-.34,26.64-23.94,49.56-59.34,49.22-61.02-.67-74.84-63.38-80.91-86.98l-5.73,1.35,10.79,87.66,5.73-.34c-.33-19.55,9.78-15.84,17.87-11.13,13.15,7.08,28.31,14.5,50.57,14.83,39.45,1.01,78.22-21.58,78.22-64.06,0-33.37-24.95-51.24-60.01-64.05Z"></path>
      <path class="cls-1" d="M794.44,384.89c-13.39,16.97-26.87,22.93-41.14,29.25-17.61,7.79-35.82,15.84-52.06,45.82-12.11,22.35-31.31,36.15-61.45,43.99.41-.36.81-.72,1.2-1.08.04-.04.1-.05.14-.09.08-.08.17-.18.25-.26,21.86-19.6,38.78-42.24,51.08-66.39.09-.12.19-.22.27-.35,9.7-16.97,20.46-25.5,35.36-37.3,3.23-2.56,6.69-5.32,10.32-8.29,1.78,1.18,3.9,1.87,6.31,1.95.16,0,.31,0,.46,0,5.71,0,12.28-3.25,17.67-8.76,9.8-10.03,9.56-20.4,5.19-25.79-1.87-2.3-4.87-3.57-8.45-3.58-.02,0-.03,0-.05,0-6.27,0-13.18,3.68-18.06,9.62-2.91,3.54-11.2,13.67-6.88,22.2-3.55,2.9-6.94,5.61-10.1,8.11-8.29,6.57-15.33,12.16-21.68,18.72,2.8-7.42,5.2-14.92,7.21-22.47.04-.11.09-.21.13-.33,7.68-27.41,19.89-45.73,30.2-61.76,9.26-14.4,18.01-27.99,22.39-45.76,6.32-25.63,3.91-38.45,1.35-52.04-1.46-7.75-2.96-15.77-2.94-26.79l.03-9.11-5.27,7.43c-17.26,24.3-27.62,53.04-29.16,80.91-.46,8.28-.29,15.01-.14,20.95.34,13.51.61,24.2-5.98,45.9-1.42,2.65-2.81,5.4-4.19,8.27-.01-.43,0-.86-.03-1.29,3.51-30.12,1.15-59.99-6.55-87.04-.42-13.84.71-24.2,2.77-32.6.11-.25.17-.52.2-.81,2.84-11.1,7.33-18.76,11.96-26.66,5.03-8.58,10.23-17.46,13.07-30.94,4.82-22.89,3.21-36,1.64-48.67-.81-6.58-1.64-13.37-1.6-21.59l.05-8.85-5.26,7.12c-23.72,32.06-42.03,63.94-25.73,129.31-.97,3.97-1.72,8.39-2.24,13.31-.98-4.29-1.97-8.74-2.98-13.29-3.79-17.05-8.09-36.36-13.98-55.23-.02-.05,0-.11-.02-.16-.05-.15-.11-.28-.17-.43-1.68-5.36-3.49-10.68-5.46-15.9-.02-.09,0-.19-.03-.28-7.66-22.52-7.13-38.65-6.24-65.36v-.35c2.13-.59,3.95-1.72,5.32-3.4,2.98-3.62,3.93-9.48,2.81-17.44-2.25-16.08-12.39-17.62-16.63-17.47-3,.07-5.71,1.48-7.64,3.96-3.23,4.16-4.08,10.93-2.33,18.58,2.05,8.96,5.15,15.11,12.67,16.05-.51,15.38-.9,27.73.44,40.02-9.18-16.78-20.89-30.97-36.26-39.77-3.15-2.94-8.08-9.9-13.78-17.96-10.58-14.97-23.73-33.59-36.27-42.05-11.36-7.67-28.08-13.43-44.25-19.02-11.7-4.04-22.76-7.85-31.35-12.18l-14.85-7.48,11.45,12.06c6.17,6.49,12.55,15.02,19.3,24.05,10.68,14.28,21.72,29.03,33.18,37.23,22.02,15.77,39.55,20.65,58.11,25.81,4.97,1.38,10.13,2.82,15.48,4.49,18.93,10.8,32.1,30.63,41.82,53.47-4.9-4.38-10.77-7.65-17.63-9.89.32-2.85-.23-5.82-1.63-8.58-2.29-4.54-6.63-8.05-12.22-9.88-11.06-3.63-19.82-1.77-23.41,5.01-1.34,2.52-1.44,5.55-.31,8.77,1.94,5.49,7.23,10.63,13.8,13.43,3.29,1.4,6.62,2.11,9.74,2.11,2.56,0,4.99-.48,7.11-1.44,2.1-.95,3.75-2.34,4.92-4,14.28,4.57,23.45,13.87,28.62,29.16,5.91,18.84,10.23,38.23,14.03,55.31.37,1.68.74,3.35,1.11,5.01-2.2-1.28-4.62-2.25-7.19-3.08-8.83-32.94-17.8-38.73-30.2-46.73-4.79-3.09-10.22-6.59-16.53-12.26l-5.91-5.31,1.12,7.87c7.11,49.8,28.84,55.95,44.71,60.44,7.82,2.21,13.67,3.92,16.48,9.95,1.48,6.38,2.97,12.37,4.5,17.72,6.19,21.57,8.89,45.01,7.82,68.91-4.49-9.91-11.45-18.17-16.48-24.14-.89-1.06-1.7-2.03-2.45-2.94,1.4-1.49,2.38-3.24,2.83-5.28,1.2-5.55-1.66-11.54-4.26-15.58-2.94-4.56-8.69-10.25-15.21-11.25-3.46-.53-6.7.37-9.37,2.59-5.74,4.78-5.4,13.77.87,22.91,4.06,5.93,10.09,10.63,16.22,10.63,1.38,0,2.75-.27,4.11-.79.86,1.06,1.79,2.18,2.85,3.43,7.56,8.96,18.46,21.9,19.5,37.28-4.73,39.75-19.99,79.88-47.19,114.2,30.05-56.86,18.77-84.25,3.25-121.82-3.9-9.45-7.94-19.22-11.69-30.37l-3.66-10.88-1.93,11.32c-1.5,8.82-3.07,16.29-4.45,22.88-5.96,28.48-8.69,41.48,10.52,78.27,12.98,24.88,6.21,54.08-18.08,78.2-10.64,9.53-22.5,18.31-35.59,26.17,12.29-12.12,18.17-23.83,23.22-39.26,6.59-.73,11.31-7.83,13.06-20.09,1.22-8.53-.28-16.68-3.91-21.27-1.92-2.42-4.39-3.84-7.13-4.09-3.44-.33-6.41.58-8.87,2.66-3.96,3.35-6.33,9.73-7.05,18.99-.43,5.54-1.45,19.29,8.07,23.01-7.61,22.86-16.96,36.48-49.48,57.52-.03.02-.04.04-.06.06-24.85,13.63-47.85,27.93-67.71,40.53-.03.02-.05.03-.07.04,0,0,0,0-.01,0-3.04,1.93-6.04,3.83-8.93,5.67-10.43,6.63-19.44,12.37-27.36,17.14-1.37.82-1.81,2.6-.98,3.97.54.9,1.5,1.4,2.48,1.4.51,0,1.03-.13,1.49-.42,7.69-4.63,16.4-10.16,26.38-16.51,14.3,8.78,26.25,11.55,36.76,11.55,8.98,0,16.92-1.98,24.41-3.85,9.29-2.32,17.32-4.32,25.96-2.35l9.57,2.18-6.86-7.02c-9.32-9.54-32.84-22.13-64.95-15.61,22.78-12.57,42.73-19.06,64.92-15.58,73.9,11.6,89.37,1.56,110.78-12.33,11.18-7.25,23.85-15.46,47.79-22.4l9.48-2.75-9.47-2.8c-61.11-18.06-88.69-5.18-126.86,12.66-14.62,6.83-31.18,14.57-51.75,21.29-4.74.47-9.43,1.39-14.13,2.63,12.63-7.4,25.88-14.8,39.58-21.83,14.66-7.52,27.94-16.13,39.94-25.59.01,0,.03,0,.04,0,.19,0,.38-.02.57-.06,17.79-3.58,32.37-8.83,44.31-16.11,45.24-4.82,120.79-25.45,124.56-109.07l.4-8.97-5.56,7.05Z"></path>
      <path class="cls-1" d="M307.07,588.27c-2.89-1.84-5.89-3.74-8.93-5.67,0,0,0,0,0,0-.03-.01-.05-.03-.08-.04-19.86-12.6-42.85-26.9-67.71-40.53-.02-.02-.03-.04-.06-.06-32.52-21.04-41.87-34.67-49.48-57.52,9.52-3.72,8.49-17.47,8.07-23.01-.71-9.25-3.08-15.64-7.05-18.99-2.46-2.08-5.42-2.98-8.86-2.66-2.75.25-5.22,1.67-7.14,4.09-3.62,4.59-5.12,12.74-3.9,21.27,1.74,12.26,6.46,19.36,13.05,20.09,5.05,15.43,10.93,27.14,23.22,39.26-13.09-7.85-24.94-16.63-35.59-26.17-24.29-24.13-31.06-53.33-18.08-78.2,19.2-36.79,16.48-49.79,10.51-78.27-1.38-6.59-2.94-14.06-4.45-22.88l-1.93-11.32-3.66,10.88c-3.75,11.15-7.79,20.92-11.69,30.37-15.52,37.56-26.8,64.96,3.25,121.82-27.19-34.31-42.46-74.45-47.19-114.2,1.04-15.38,11.94-28.32,19.51-37.28,1.05-1.25,1.99-2.37,2.85-3.43,1.37.52,2.74.79,4.11.79,6.12,0,12.16-4.71,16.22-10.63,6.26-9.13,6.6-18.12.86-22.91-2.66-2.22-5.9-3.12-9.37-2.59-6.52,1-12.27,6.68-15.21,11.25-2.61,4.04-5.47,10.03-4.26,15.58.44,2.03,1.42,3.78,2.83,5.28-.75.91-1.57,1.88-2.45,2.94-5.04,5.96-11.99,14.22-16.49,24.14-1.07-23.9,1.63-47.34,7.82-68.91,1.54-5.35,3.02-11.34,4.51-17.72,2.8-6.04,8.65-7.74,16.47-9.95,15.87-4.49,37.61-10.64,44.71-60.44l1.13-7.87-5.92,5.31c-6.31,5.66-11.74,9.16-16.53,12.26-12.4,8-21.37,13.79-30.21,46.73-2.56.83-4.99,1.8-7.19,3.08.37-1.65.74-3.32,1.12-5.01,3.8-17.08,8.11-36.47,14.03-55.31,5.17-15.3,14.33-24.6,28.61-29.16,1.18,1.66,2.83,3.05,4.92,4,2.13.96,4.54,1.44,7.11,1.44,3.12,0,6.45-.71,9.74-2.11,6.57-2.8,11.86-7.95,13.8-13.43,1.14-3.21,1.03-6.24-.3-8.77-3.59-6.78-12.35-8.64-23.42-5.01-5.59,1.83-9.93,5.34-12.21,9.88-1.4,2.76-1.95,5.73-1.63,8.58-6.86,2.23-12.73,5.51-17.63,9.89,9.72-22.84,22.88-42.67,41.82-53.47,5.36-1.67,10.51-3.11,15.48-4.49,18.57-5.16,36.1-10.04,58.12-25.81,11.45-8.2,22.5-22.96,33.17-37.23,6.76-9.03,13.14-17.56,19.3-24.05l11.46-12.06-14.85,7.48c-8.6,4.33-19.65,8.14-31.36,12.18-16.17,5.58-32.89,11.35-44.25,19.02-12.54,8.46-25.7,27.08-36.28,42.05-5.7,8.07-10.63,15.03-13.77,17.96-15.38,8.8-27.08,22.99-36.26,39.77,1.34-12.28.95-24.63.44-40.02,7.53-.94,10.62-7.1,12.67-16.05,1.75-7.65.9-14.43-2.33-18.58-1.93-2.48-4.64-3.89-7.64-3.96-4.24-.15-14.38,1.39-16.63,17.47-1.11,7.95-.17,13.82,2.81,17.44,1.38,1.68,3.2,2.81,5.32,3.4v.35c.89,26.71,1.43,42.83-6.23,65.36-.03.09-.02.18-.04.28-1.97,5.22-3.78,10.55-5.46,15.9-.05.15-.12.28-.17.43-.02.05,0,.11-.02.16-5.89,18.87-10.19,38.17-13.98,55.23-1.01,4.55-2,9-2.99,13.29-.52-4.92-1.27-9.34-2.23-13.31,16.29-65.37-2.01-97.25-25.73-129.31l-5.26-7.12.04,8.85c.05,8.22-.79,15.01-1.6,21.59-1.56,12.67-3.18,25.78,1.65,48.67,2.84,13.48,8.04,22.36,13.07,30.94,4.63,7.9,9.12,15.56,11.96,26.66.03.28.1.55.21.81,2.06,8.39,3.18,18.75,2.76,32.6-7.7,27.05-10.05,56.92-6.55,87.04-.02.42-.02.86-.03,1.29-1.37-2.87-2.76-5.62-4.18-8.27-6.59-21.7-6.32-32.38-5.98-45.9.16-5.94.33-12.67-.13-20.95-1.54-27.88-11.9-56.61-29.16-80.91l-5.27-7.43.03,9.11c.03,11.02-1.48,19.04-2.93,26.79-2.55,13.58-4.97,26.41,1.35,52.04,4.38,17.76,13.13,31.36,22.39,45.76,10.3,16.02,22.52,34.35,30.19,61.76.04.13.09.22.13.33,2.01,7.55,4.41,15.05,7.21,22.47-6.35-6.56-13.39-12.15-21.68-18.72-3.16-2.51-6.55-5.21-10.1-8.11,4.32-8.53-3.96-18.65-6.87-22.2-4.88-5.94-11.8-9.62-18.06-9.62-.02,0-.03,0-.05,0-3.58,0-6.58,1.28-8.46,3.58-4.37,5.39-4.62,15.76,5.19,25.79,5.39,5.52,11.96,8.76,17.67,8.76.16,0,.31,0,.46,0,2.42-.08,4.54-.77,6.31-1.95,3.63,2.97,7.1,5.73,10.32,8.29,14.9,11.8,25.66,20.33,35.37,37.3.07.13.18.24.27.35,12.3,24.15,29.21,46.79,51.08,66.39.09.08.17.17.26.26.04.04.09.05.14.09.4.36.8.72,1.2,1.08-30.14-7.84-49.34-21.64-61.44-43.99-16.24-29.98-34.45-38.03-52.06-45.82-14.27-6.31-27.76-12.28-41.14-29.25l-5.56-7.05.4,8.97c3.78,83.62,79.32,104.25,124.56,109.07,11.94,7.28,26.52,12.53,44.31,16.11.19.04.38.06.58.06.02,0,.03,0,.04,0,12,9.46,25.28,18.07,39.93,25.59,13.7,7.03,26.96,14.43,39.59,21.83-4.7-1.25-9.39-2.17-14.13-2.63-20.57-6.72-37.13-14.46-51.75-21.29-38.17-17.84-65.75-30.72-126.87-12.66l-9.47,2.8,9.48,2.75c23.94,6.94,36.61,15.16,47.78,22.4,21.41,13.89,36.89,23.92,110.78,12.33,22.2-3.47,42.14,3.01,64.92,15.58-32.11-6.52-55.63,6.07-64.95,15.61l-6.86,7.02,9.57-2.18c8.64-1.97,16.67.03,25.96,2.35,7.48,1.87,15.42,3.85,24.4,3.85,10.5,0,22.46-2.77,36.76-11.55,9.98,6.35,18.69,11.88,26.38,16.51.47.28.98.42,1.49.42.98,0,1.94-.5,2.48-1.4.82-1.37.38-3.15-.99-3.97-7.91-4.77-16.92-10.5-27.35-17.14Z"></path>
      <path class="cls-1" d="M600.22,313.04v-131.76l-200.22-89.15-200.21,89.14v131.77c0,128.88,51.65,174.27,200.21,279.92,148.57-105.65,200.22-151.03,200.22-279.92ZM400,582.46c-144.79-103.18-191.66-147.25-191.66-269.42v-126.21l191.66-85.33,191.66,85.33v126.21c0,122.16-46.87,166.24-191.66,269.42Z"></path>
    </g>
  </g>
</svg></svg></g></g></svg></g></svg>