<svg xmlns="http://www.w3.org/2000/svg" version="1.1" xmlns:xlink="http://www.w3.org/1999/xlink" xmlns:svgjs="http://svgjs.com/svgjs" width="300" height="300"><svg width="300" height="300" viewBox="0 0 300 300" xmlns="http://www.w3.org/2000/svg" xmlns:xlink="http://www.w3.org/1999/xlink" version="1.1" baseProfile="full">
    <g transform="scale(1.000000,-1.000000) translate(0,-300)">
        <path d="M 118.187500 1.000000 Q 92.796875 1.000000 70.824219 7.250000 Q 48.851562 13.500000 33.617188 22.093750 L 20.140625 8.421875 L 3.539062 8.421875 L 1.000000 108.617188 L 17.796875 108.617188 Q 23.460938 94.359375 32.250000 78.539062 Q 41.039062 62.718750 52.562500 50.218750 Q 64.476562 37.132812 79.222656 28.929688 Q 93.968750 20.726562 113.695312 20.726562 Q 140.257812 20.726562 154.417969 33.714844 Q 168.578125 46.703125 168.578125 66.429688 Q 168.578125 82.640625 156.566406 93.675781 Q 144.554688 104.710938 119.359375 112.718750 Q 102.953125 117.992188 89.183594 122.484375 Q 75.414062 126.976562 63.304688 131.664062 Q 35.375000 142.796875 21.800781 163.500000 Q 8.226562 184.203125 8.226562 209.789062 Q 8.226562 226.000000 15.257812 240.941406 Q 22.289062 255.882812 35.765625 267.796875 Q 48.656250 278.929688 68.773438 285.960938 Q 88.890625 292.992188 112.523438 292.992188 Q 135.570312 292.992188 155.687500 286.644531 Q 175.804688 280.296875 187.328125 273.851562 L 199.242188 285.570312 L 216.234375 285.570312 L 217.796875 191.039062 L 201.000000 191.039062 Q 195.140625 206.273438 187.230469 222.191406 Q 179.320312 238.109375 170.531250 248.656250 Q 160.960938 259.984375 148.460938 266.722656 Q 135.960938 273.460938 119.164062 273.460938 Q 98.070312 273.460938 84.691406 261.546875 Q 71.312500 249.632812 71.312500 232.054688 Q 71.312500 215.453125 82.933594 204.906250 Q 94.554688 194.359375 119.164062 186.351562 Q 133.617188 181.468750 148.656250 176.585938 Q 163.695312 171.703125 175.414062 167.210938 Q 203.734375 156.273438 218.480469 137.035156 Q 233.226562 117.796875 233.226562 89.281250 Q 233.226562 71.312500 224.828125 54.515625 Q 216.429688 37.718750 202.171875 26.585938 Q 186.546875 14.281250 166.039062 7.640625 Q 145.531250 1.000000 118.187500 1.000000 Z" transform="scale(1.000000,1.000000) translate(32.886719,3.003906)" opacity="1.000000"></path>
    </g>
</svg><style>@media (prefers-color-scheme: light) { :root { filter: none; } }
@media (prefers-color-scheme: dark) { :root { filter: invert(100%); } }
</style></svg>