<?xml version="1.0" standalone="no"?>
<!DOCTYPE svg PUBLIC "-//W3C//DTD SVG 20010904//EN"
 "http://www.w3.org/TR/2001/REC-SVG-20010904/DTD/svg10.dtd">
<svg version="1.0" xmlns="http://www.w3.org/2000/svg"
 width="700.000000pt" height="700.000000pt" viewBox="0 0 700.000000 700.000000"
 preserveAspectRatio="xMidYMid meet">
<metadata>
Created by potrace 1.14, written by Peter Selinger 2001-2017
</metadata>
<g transform="translate(0.000000,700.000000) scale(0.100000,-0.100000)"
fill="#000000" stroke="none">
<path d="M3227 6904 c-1 -1 -45 -5 -97 -8 -52 -3 -106 -8 -120 -10 -14 -3 -47
-7 -75 -11 -128 -15 -357 -66 -462 -101 -25 -9 -53 -17 -63 -19 -42 -8 -309
-120 -412 -173 -535 -276 -890 -735 -1009 -1307 -38 -182 -31 -555 14 -740 3
-11 10 -42 17 -70 50 -226 234 -585 382 -747 194 -212 335 -322 573 -449 226
-121 521 -228 1425 -519 256 -83 404 -136 515 -185 401 -178 637 -384 732
-639 38 -100 52 -198 48 -336 -3 -143 -4 -153 -35 -268 -43 -158 -126 -299
-253 -426 -160 -161 -343 -255 -600 -306 -231 -46 -563 -45 -782 4 -11 2 -41
9 -66 15 -288 66 -673 316 -948 615 -20 22 -43 47 -51 55 -12 13 -115 138
-173 211 -7 8 -42 58 -78 110 -156 225 -316 522 -460 850 l-68 155 -193 0
-193 0 2 -155 c1 -142 5 -317 18 -815 3 -99 7 -272 10 -385 5 -199 10 -395 20
-784 3 -105 9 -192 14 -195 5 -4 92 -6 194 -5 l185 1 156 159 156 159 82 -42
c316 -160 764 -316 1053 -367 17 -3 41 -8 55 -11 14 -3 39 -7 55 -10 17 -3 41
-7 55 -10 14 -2 43 -7 65 -9 93 -11 151 -19 168 -22 122 -22 756 -22 898 1 13
2 51 6 84 10 80 8 121 15 175 26 25 6 62 13 83 16 45 6 268 65 352 92 251 83
509 215 725 370 284 204 474 430 626 746 88 184 143 362 170 555 10 72 13 380
4 440 -5 30 -11 78 -13 105 -24 233 -146 548 -294 754 -96 133 -257 294 -408
409 -45 35 -176 117 -250 158 -236 131 -436 209 -1060 414 -760 251 -910 305
-1090 393 -372 184 -567 392 -631 673 -11 49 -18 121 -18 189 -1 189 19 285
90 428 142 284 445 489 804 543 70 11 367 11 442 1 142 -20 318 -71 420 -123
60 -30 221 -129 240 -147 7 -7 34 -28 60 -47 113 -85 296 -288 405 -450 153
-229 406 -736 528 -1062 l30 -78 55 -1 c83 0 292 0 317 0 l23 1 -5 293 c-3
160 -7 407 -10 547 -13 795 -22 1303 -24 1345 -1 19 -7 20 -173 19 -95 -1
-184 -2 -199 -3 -18 -1 -62 -37 -163 -136 l-137 -134 -92 45 c-51 25 -100 49
-109 54 -109 60 -645 239 -798 266 -14 3 -41 9 -60 14 -34 9 -120 23 -210 35
-25 3 -56 8 -70 10 -73 12 -562 29 -573 19z"/>
</g>
</svg>
